<svg width="340" height="131" viewBox="0 0 340 131" fill="none" xmlns="http://www.w3.org/2000/svg">
<path d="M91.2983 13.3643L118.65 12.9897C121.147 13.3643 126.443 14.863 127.642 17.8605C128.841 20.8579 127.642 23.6055 126.893 24.6046V27.602L143.004 39.5917C148.874 36.0947 160.688 27.602 160.988 21.6072C161.154 18.2812 161.175 16.8774 161.138 16.436L160.988 16.7364C161.044 16.3472 161.109 16.0818 161.138 16.436L161.363 15.9871L156.866 15.6124L155.742 14.4884L154.993 13.739C154.369 14.1137 153.12 14.938 153.12 15.2377L152.371 16.7364V7.74418V6.24547C153.37 4.74677 155.668 1.74935 156.867 1.74935H157.991H158.365H158.74L164.36 9.24289L165.11 9.61757H166.234H166.983L168.107 8.86821L174.102 3.99741H161.737L161.363 3.24806L160.988 2.87338L161.363 2.12403L162.112 1.74935L162.862 1H164.36H174.851L178.973 1.74935L180.663 2.12403L181.221 3.24806L181.97 3.99741L182.345 5.49612L183.094 14.863L184.593 25.354C185.092 27.1025 186.916 31.1989 190.213 33.5969C193.51 35.9948 197.332 38.3428 198.83 39.217L199.205 39.5917L213.818 27.9767V24.23L213.443 23.4806V21.476L213.818 19.117L214.567 17.1111L216.066 15.6124L218.688 14.4884L221.686 13.3643L222.81 12.9897H249.786C249.662 15.2377 247.688 20.4832 240.794 23.4806H229.179H228.805H228.43L195.084 54.5788L194.709 56.0775L194.334 57.5762V58.3255L193.21 103.287L192.836 106.659L192.461 107.783L192.086 108.158L191.712 108.532H191.337H190.962H190.588H190.213L189.838 108.158L189.464 107.783L187.59 102.912L186.466 101.413L185.342 100.664L184.967 100.289H184.218H183.469H182.719L182.345 100.664L181.97 102.163L181.595 103.661V105.16L181.221 106.284V106.659L180.846 107.034H180.097L179.722 106.659L179.347 106.284V105.535L178.973 104.411V103.287V89.7984L175.975 87.925L174.102 87.5503H171.479H165.859L163.611 87.925L162.487 88.2997L161.363 89.4237L160.988 89.7984V107.034L160.239 107.408H159.489L158.74 106.659C158.615 106.534 158.365 106.209 158.365 105.909C158.365 105.61 158.116 104.286 157.991 103.661L157.616 101.413L156.492 100.289L155.368 99.9147L154.244 100.289H153.869L153.495 100.664L152.371 102.163L151.996 103.661L151.621 104.785L150.872 105.909L150.497 107.034L150.122 107.783L149.748 108.158L148.998 107.783L148.624 107.034L148.249 105.909V104.411L147.874 101.039V99.9147V93.1705V87.5503V74.062L147.125 64.3204L146.75 59.8242L146.001 56.8268L144.877 54.2041L143.004 51.2067L135.51 44.4625L113.404 23.8553H107.035H104.412L101.789 23.1059C98.0424 21.6072 90.6988 17.5607 91.2983 13.3643Z" fill="#EAEAEA"/>
<path d="M155.742 101.788H154.993C154.394 101.788 153.744 103.037 153.495 103.661L153.12 108.158H152.745C151.546 107.858 147 111.03 144.877 112.654C144.502 112.779 143.753 113.103 143.753 113.403C143.753 113.778 143.378 114.152 143.003 114.152C142.704 114.152 142.879 114.652 143.003 114.902C143.003 115.027 143.078 115.351 143.378 115.651C143.753 116.026 143.378 116.026 143.378 116.4C143.378 116.7 143.628 116.775 143.753 116.775H144.502L145.252 116.4L146.376 116.026L148.624 114.527L148.998 114.152L150.122 113.778H150.497H151.246L152.37 114.152V121.646L152.745 123.145L153.12 123.894V124.643L153.869 125.393H154.993L155.368 124.643L155.742 123.894V122.395L156.117 121.646L156.492 116.4L156.866 114.902L157.241 114.152L157.991 113.403L158.74 113.028H160.239H161.737H162.861C163.161 113.028 163.486 112.779 163.611 112.654C163.736 112.529 164.06 112.279 164.36 112.279H165.484C165.784 112.279 165.859 112.029 165.859 111.904C166.109 111.779 166.683 111.53 166.983 111.53C167.357 111.53 167.357 111.53 167.732 111.155L168.107 110.78L167.732 110.406H167.357L166.983 110.031L166.608 109.656H166.233L165.484 109.282H164.36V108.907H163.985H162.861L162.487 108.532H162.112L161.737 108.158H160.239H158.74L157.991 107.783L157.241 107.034V104.036C157.241 103.137 156.242 102.163 155.742 101.788Z" fill="#EAEAEA"/>
<path d="M154.993 13.739L155.742 14.4884L156.866 15.6124L161.363 15.9871L160.988 16.7364C161.113 15.8622 161.288 15.6124 160.988 21.6072C160.688 27.602 148.874 36.0947 143.004 39.5917L126.893 27.602V24.6046C127.642 23.6055 128.841 20.8579 127.642 17.8605C126.443 14.863 121.147 13.3643 118.65 12.9897L91.2983 13.3643C90.6988 17.5607 98.0424 21.6072 101.789 23.1059L104.412 23.8553H107.035H113.404L135.51 44.4625L143.004 51.2067L144.877 54.2041L146.001 56.8268L146.75 59.8242L147.125 64.3204L147.874 74.062V87.5503V93.1705V99.9147V101.039L148.249 104.411V105.909L148.624 107.034L148.998 107.783L149.748 108.158L150.122 107.783L150.497 107.034L150.872 105.909L151.621 104.785L151.996 103.661L152.371 102.163L153.495 100.664L153.869 100.289H154.244L155.368 99.9147L156.492 100.289L157.616 101.413L157.991 103.661C158.116 104.286 158.365 105.61 158.365 105.909C158.365 106.209 158.615 106.534 158.74 106.659L159.489 107.408H160.239L160.988 107.034V89.7984L161.363 89.4237L162.487 88.2997L163.611 87.925L165.859 87.5503H171.479H174.102L175.975 87.925L178.973 89.7984V103.287V104.411L179.347 105.535V106.284L179.722 106.659L180.097 107.034H180.846L181.221 106.659V106.284L181.595 105.16V103.661L181.97 102.163L182.345 100.664L182.719 100.289H183.469H184.218H184.967L185.342 100.664L186.466 101.413L187.59 102.912L189.464 107.783L189.838 108.158L190.213 108.532H190.588H190.962H191.337H191.712L192.086 108.158L192.461 107.783L192.836 106.659L193.21 103.287L194.334 58.3255V57.5762L194.709 56.0775L195.084 54.5788L228.43 23.4806H228.805H229.179H240.794C247.688 20.4832 249.662 15.2377 249.786 12.9897H222.81L221.686 13.3643L218.688 14.4884L216.066 15.6124L214.567 17.1111L213.818 19.117L213.443 21.476V23.4806L213.818 24.23V27.9767L199.205 39.5917L198.83 39.217C197.332 38.3428 193.51 35.9948 190.213 33.5969C186.916 31.1989 185.092 27.1025 184.593 25.354L183.094 14.863L182.345 5.49612L181.97 3.99741L181.221 3.24806L180.663 2.12403L178.973 1.74935L174.851 1H164.36H162.862L162.112 1.74935L161.363 2.12403L160.988 2.87338L161.363 3.24806L161.737 3.99741H174.102L168.107 8.86821L166.983 9.61756H166.234H165.11L164.36 9.24289L158.74 1.74935H158.365H157.991C158.116 1.74935 158.066 1.74935 156.867 1.74935C155.668 1.74935 153.37 4.74677 152.371 6.24547V7.74418V16.7364L153.12 15.2377C153.12 14.938 154.369 14.1137 154.993 13.739ZM154.993 13.739L160.613 12.9897M153.495 103.661C153.744 103.037 154.394 101.788 154.993 101.788C155.593 101.788 155.742 101.788 155.742 101.788C156.242 102.163 157.241 103.137 157.241 104.036C157.241 104.935 157.241 106.409 157.241 107.034L157.991 107.783L158.74 108.158H160.239H161.737L162.112 108.532H162.487L162.861 108.907H163.985H164.36V109.282H165.484L166.233 109.656H166.608L166.983 110.031L167.357 110.406H167.732L168.107 110.78C168.107 110.78 168.032 110.855 167.732 111.155C167.357 111.53 167.357 111.53 166.983 111.53C166.683 111.53 166.109 111.779 165.859 111.904C165.859 112.029 165.784 112.279 165.484 112.279C165.109 112.279 164.735 112.279 164.36 112.279C164.06 112.279 163.736 112.529 163.611 112.654C163.486 112.779 163.161 113.028 162.861 113.028C162.562 113.028 161.987 113.028 161.737 113.028H160.239H158.74L157.991 113.403L157.241 114.152L156.866 114.902L156.492 116.4L156.117 121.646L155.742 122.395V123.894L155.368 124.643L154.993 125.393H153.869L153.12 124.643V123.894L152.745 123.145L152.37 121.646V114.152L151.246 113.778H150.497H150.122L148.998 114.152L148.624 114.527L146.376 116.026L145.252 116.4L144.502 116.775H143.753C143.628 116.775 143.378 116.7 143.378 116.4C143.378 116.026 143.753 116.026 143.378 115.651C143.078 115.351 143.003 115.027 143.003 114.902C142.879 114.652 142.704 114.152 143.003 114.152C143.378 114.152 143.753 113.778 143.753 113.403C143.753 113.103 144.502 112.779 144.877 112.654C147 111.03 151.546 107.858 152.745 108.158H153.12L153.495 103.661Z" stroke="black" stroke-width="0.749353"/>
<path d="M111.53 25.3541C113.329 25.9536 132.762 44.3377 142.254 53.4548L143.378 55.7029L144.877 65.8192L144.502 66.5685L143.378 66.9432L142.629 66.5685L141.879 65.8192L141.505 65.0698L141.13 64.3204L140.755 63.5711L140.38 63.1964H139.631H138.882L138.132 63.9458L137.758 64.3204L136.634 63.9458L135.884 63.5711L134.76 62.8217L134.011 61.6977L133.262 60.9484L132.138 59.8243H128.766L127.267 57.5763L126.143 56.8269L123.895 56.4522H122.771L120.523 52.7055L116.776 52.3308L116.026 48.584H113.029C112.155 47.46 110.406 45.137 110.406 44.8373C110.406 44.5375 108.158 43.963 107.034 43.7132L105.161 38.8424L101.789 37.7184C101.672 36.5551 101.513 34.3734 101.734 34.3218L98.4167 32.8476L98.042 29.4755L94.6699 26.1034C99.5407 25.6039 109.732 24.7546 111.53 25.3541Z" fill="#EAEAEA" stroke="black" stroke-width="0.749353"/>
<path d="M123.146 86.4264H116.776C116.402 86.4264 115.727 86.2016 116.027 85.3024C116.327 84.4031 120.898 77.9337 123.146 74.8114L125.019 71.0646L125.768 69.5659L126.143 68.0672L126.892 66.5685L127.642 65.0698L128.391 63.9458L129.141 63.1964L129.515 62.8218L130.639 62.4471H131.389H132.138L132.887 62.8218L133.253 63.9185C133.259 63.8549 133.262 63.8747 133.262 63.9458L133.253 63.9185C133.225 64.1901 133.13 65.9846 132.887 71.814C132.288 78.7081 126.143 84.4281 123.146 86.4264Z" fill="#EAEAEA"/>
<path d="M132.138 77.0595C131.239 80.6564 127.267 86.0517 125.394 88.2998L125.019 89.0491L125.394 89.7985L126.143 90.9225L126.892 91.6719H128.391H129.89H131.014L132.138 90.9225L134.386 89.4238L137.009 86.4264L138.882 82.3049L140.755 73.6874L141.13 71.814V69.9406V68.8166L140.755 67.6926L140.381 66.5685L139.631 65.8192L138.882 65.0698H138.133C138.008 65.0698 137.608 65.2197 137.009 65.8192C136.409 66.4187 135.01 69.3162 134.386 70.69C134.011 71.3144 133.037 73.4626 132.138 77.0595Z" fill="#EAEAEA"/>
<path d="M138.133 87.5504L134.386 92.0465V92.7959L134.761 93.1706L135.135 93.9199L136.259 94.2946L137.383 94.6693H138.882L140.006 94.2946H141.505L142.629 93.9199L143.753 93.1706L144.877 92.7959L145.626 91.6719V72.5634V71.0646L145.252 70.3153H144.502H144.128L143.753 70.69L143.004 71.814L141.505 74.4367L141.13 76.6848V77.8088L140.755 79.6822L140.381 81.9303L139.631 83.8037L138.882 85.677L138.133 87.5504Z" fill="#EAEAEA"/>
<path d="M123.146 86.4264H116.776C116.402 86.4264 115.727 86.2016 116.027 85.3024C116.327 84.4031 120.898 77.9337 123.146 74.8114L125.019 71.0646L125.768 69.5659L126.143 68.0672L126.892 66.5685L127.642 65.0698L128.391 63.9458L129.141 63.1964L129.515 62.8218L130.639 62.4471H131.389H132.138L132.887 62.8218L133.253 63.9185C133.259 63.8549 133.262 63.8747 133.262 63.9458L133.253 63.9185C133.225 64.1901 133.13 65.9846 132.887 71.814C132.288 78.7081 126.143 84.4281 123.146 86.4264Z" stroke="black" stroke-width="0.749353"/>
<path d="M132.138 77.0595C131.239 80.6564 127.267 86.0517 125.394 88.2998L125.019 89.0491L125.394 89.7985L126.143 90.9225L126.892 91.6719H128.391H129.89H131.014L132.138 90.9225L134.386 89.4238L137.009 86.4264L138.882 82.3049L140.755 73.6874L141.13 71.814V69.9406V68.8166L140.755 67.6926L140.381 66.5685L139.631 65.8192L138.882 65.0698H138.133C138.008 65.0698 137.608 65.2197 137.009 65.8192C136.409 66.4187 135.01 69.3162 134.386 70.69C134.011 71.3144 133.037 73.4626 132.138 77.0595Z" stroke="black" stroke-width="0.749353"/>
<path d="M138.133 87.5504L134.386 92.0465V92.7959L134.761 93.1706L135.135 93.9199L136.259 94.2946L137.383 94.6693H138.882L140.006 94.2946H141.505L142.629 93.9199L143.753 93.1706L144.877 92.7959L145.626 91.6719V72.5634V71.0646L145.252 70.3153H144.502H144.128L143.753 70.69L143.004 71.814L141.505 74.4367L141.13 76.6848V77.8088L140.755 79.6822L140.381 81.9303L139.631 83.8037L138.882 85.677L138.133 87.5504Z" stroke="black" stroke-width="0.749353"/>
<path d="M122.771 59.4496L108.158 79.6822C108.758 80.5814 110.656 82.18 111.53 82.6796H113.778L115.277 81.9302C120.373 79.832 124.394 68.8165 125.768 63.5711V61.6977V60.199V59.4496L125.393 58.7003H124.644H123.895L122.771 59.4496Z" fill="#EAEAEA" stroke="black" stroke-width="0.749353"/>
<path d="M112.28 50.0827L92.4219 66.5685L92.7966 67.3178L93.5459 68.4419L94.2953 69.5659L95.0446 69.9406L96.5433 70.6899L99.1661 70.3152C103.662 69.1163 109.033 61.323 111.156 57.5762L112.654 55.3282L113.404 53.0801V50.0827H112.654H112.28Z" fill="#EAEAEA"/>
<path d="M107.784 64.6951L99.1661 73.3127H98.9692L99.1661 74.062L99.9154 74.8114L100.665 75.9354C100.79 76.0603 101.114 76.3101 101.414 76.3101C101.789 76.3101 101.789 76.6848 102.538 77.0594C103.138 77.3592 103.038 77.1843 102.913 77.0594H104.786L105.536 76.3101C105.835 76.0103 107.159 75.5938 107.784 75.423L108.908 74.8114L109.657 73.6873C110.157 73.3127 111.156 72.4884 111.156 72.1886C111.156 71.8889 111.405 72.0637 111.53 72.1886L112.654 71.0646C112.904 70.565 113.479 69.491 113.778 69.1912C114.153 68.8165 114.153 69.1912 114.528 68.8165C114.902 68.4419 115.158 68.4419 115.652 67.6925C116.047 67.093 116.066 67.1929 116.027 67.3178C116.151 67.1929 116.401 66.8682 116.401 66.5685C116.401 66.1938 116.776 65.8191 117.151 65.4444L117.525 65.0698V64.6951L118.275 63.1964C118.574 62.8966 118.399 62.8217 118.275 62.8217C118.275 62.6968 118.35 62.2222 118.649 61.323C118.649 60.9483 119.024 60.9483 119.024 60.5737C119.024 60.2739 119.274 60.199 119.399 60.199V59.4496V59.0749V58.3256V57.9509V57.5762V56.4522C119.399 55.8527 119.648 55.9526 119.773 56.0775V55.7029L119.399 55.3282L119.024 54.9535C118.899 54.8286 118.649 54.5039 118.649 54.2041C118.649 53.9044 117.65 54.8286 117.151 55.3282C116.027 55.7029 112.654 59.0749 111.53 60.199L111.53 60.199C110.406 61.323 109.657 62.8217 107.784 64.6951Z" fill="#EAEAEA"/>
<path d="M112.28 50.0827L92.4219 66.5685L92.7966 67.3178L93.5459 68.4419L94.2953 69.5659L95.0446 69.9406L96.5433 70.6899L99.1661 70.3152C103.662 69.1163 109.033 61.323 111.156 57.5762L112.654 55.3282L113.404 53.0801V50.0827H112.654H112.28Z" stroke="black" stroke-width="0.749353"/>
<path d="M107.784 64.6951L99.1661 73.3127H98.9692L99.1661 74.062L99.9154 74.8114L100.665 75.9354C100.79 76.0603 101.114 76.3101 101.414 76.3101C101.789 76.3101 101.789 76.6848 102.538 77.0594C103.138 77.3592 103.038 77.1843 102.913 77.0594H104.786L105.536 76.3101C105.835 76.0103 107.159 75.5938 107.784 75.423L108.908 74.8114L109.657 73.6873C110.157 73.3127 111.156 72.4884 111.156 72.1886C111.156 71.8889 111.405 72.0637 111.53 72.1886L112.654 71.0646C112.904 70.565 113.479 69.491 113.778 69.1912C114.153 68.8165 114.153 69.1912 114.528 68.8165C114.902 68.4419 115.158 68.4419 115.652 67.6925C116.047 67.093 116.066 67.1929 116.027 67.3178C116.151 67.1929 116.401 66.8682 116.401 66.5685C116.401 66.1938 116.776 65.8191 117.151 65.4444L117.525 65.0698V64.6951L118.275 63.1964C118.574 62.8966 118.399 62.8217 118.275 62.8217C118.275 62.6968 118.35 62.2222 118.649 61.323C118.649 60.9483 119.024 60.9483 119.024 60.5737C119.024 60.2739 119.274 60.199 119.399 60.199V59.4496V59.0749V58.3256V57.9509V57.5762V56.4522C119.399 55.8527 119.648 55.9526 119.773 56.0775V55.7029L119.399 55.3282L119.024 54.9535C118.899 54.8286 118.649 54.5039 118.649 54.2041C118.649 53.9044 117.65 54.8286 117.151 55.3282C116.027 55.7029 112.654 59.0749 111.53 60.199L111.53 60.199C110.406 61.323 109.657 62.8217 107.784 64.6951Z" stroke="black" stroke-width="0.749353"/>
<path d="M86.053 13.3644H56.4536C56.3287 11.7408 56.1538 9.61766 56.4536 14.1138C56.7533 18.6099 63.3227 21.982 66.5699 23.106L95.0453 22.7313L86.053 13.3644Z" fill="#EAEAEA"/>
<path d="M92.0478 25.7288L69.5672 26.1034C68.9677 29.7003 71.3156 31.8485 72.5646 32.4729L83.0555 32.0983C89.9496 29.7003 91.9229 26.8528 92.0478 25.7288Z" fill="#EAEAEA"/>
<path d="M73.6886 34.721C78.1847 34.3463 88.4509 32.9225 93.5465 30.2249H94.2958H95.0452V33.597C92.4224 36.5944 85.8281 42.2895 80.4328 41.0905C80.0927 41.0149 79.7855 40.9469 79.5091 40.8859C79.7012 40.9616 79.8851 41.03 80.0581 41.0905C78.0688 40.6224 75.3996 39.9789 79.5091 40.8859C76.9266 39.8679 72.8517 37.5108 73.6886 34.721Z" fill="#EAEAEA"/>
<path d="M98.4173 35.4704C89.7248 40.566 80.0581 42.5892 76.3113 42.9639C76.0116 46.5608 78.1847 48.2094 79.3088 48.584H84.5542C88.1511 49.4833 95.5447 42.2145 98.7919 38.4678C99.6912 35.7701 98.9168 35.3455 98.4173 35.4704Z" fill="#EAEAEA"/>
<path d="M89.7997 48.2094C86.8023 50.0078 82.0564 50.4574 80.0581 50.4574H79.6834C79.6834 51.6564 81.9315 54.454 83.0555 55.7029C82.556 55.8278 82.7558 55.9277 87.5516 55.3282C92.3475 54.7287 97.2932 50.5823 99.1666 48.584C99.5413 48.3343 100.441 47.6099 101.04 46.7107C101.639 45.8114 103.038 43.8381 103.663 42.9639L104.037 42.2145L104.412 41.4652V41.0905L104.037 40.7158L103.663 40.3411H102.539C99.5413 42.2145 92.7971 46.4109 89.7997 48.2094Z" fill="#EAEAEA"/>
<path d="M107.41 45.9613C107.11 46.5608 93.0469 55.2033 86.0529 59.4497V60.5737C86.0529 61.7727 87.5516 63.0715 88.301 63.5711H90.1744C95.5697 62.6719 104.412 54.454 108.159 50.4574L108.534 48.9587V45.9613H107.41Z" fill="#EAEAEA"/>
<path d="M86.053 13.3644H56.4536C56.3287 11.7408 56.1538 9.61766 56.4536 14.1138C56.7533 18.6099 63.3227 21.982 66.5699 23.106L95.0453 22.7313L86.053 13.3644Z" stroke="black" stroke-width="0.749353"/>
<path d="M92.0478 25.7288L69.5672 26.1034C68.9677 29.7003 71.3156 31.8485 72.5646 32.4729L83.0555 32.0983C89.9496 29.7003 91.9229 26.8528 92.0478 25.7288Z" stroke="black" stroke-width="0.749353"/>
<path d="M73.6886 34.721C78.1847 34.3463 88.4509 32.9225 93.5465 30.2249H94.2958H95.0452V33.597C92.4224 36.5944 85.8281 42.2895 80.4328 41.0905C80.0927 41.0149 79.7855 40.9469 79.5091 40.8859C79.7012 40.9616 79.8851 41.03 80.0581 41.0905C78.0688 40.6224 75.3996 39.9789 79.5091 40.8859C76.9266 39.8679 72.8517 37.5108 73.6886 34.721Z" stroke="black" stroke-width="0.749353"/>
<path d="M98.4173 35.4704C89.7248 40.566 80.0581 42.5892 76.3113 42.9639C76.0116 46.5608 78.1847 48.2094 79.3088 48.584H84.5542C88.1511 49.4833 95.5447 42.2145 98.7919 38.4678C99.6912 35.7701 98.9168 35.3455 98.4173 35.4704Z" stroke="black" stroke-width="0.749353"/>
<path d="M89.7997 48.2094C86.8023 50.0078 82.0564 50.4574 80.0581 50.4574H79.6834C79.6834 51.6564 81.9315 54.454 83.0555 55.7029C82.556 55.8278 82.7558 55.9277 87.5516 55.3282C92.3475 54.7287 97.2932 50.5823 99.1666 48.584C99.5413 48.3343 100.441 47.6099 101.04 46.7107C101.639 45.8114 103.038 43.8381 103.663 42.9639L104.037 42.2145L104.412 41.4652V41.0905L104.037 40.7158L103.663 40.3411H102.539C99.5413 42.2145 92.7971 46.4109 89.7997 48.2094Z" stroke="black" stroke-width="0.749353"/>
<path d="M107.41 45.9613C107.11 46.5608 93.0469 55.2033 86.0529 59.4497V60.5737C86.0529 61.7727 87.5516 63.0715 88.301 63.5711H90.1744C95.5697 62.6719 104.412 54.454 108.159 50.4574L108.534 48.9587V45.9613H107.41Z" stroke="black" stroke-width="0.749353"/>
<path d="M85.6767 62.8217L44.8369 63.1964C46.3356 68.292 60.948 71.814 68.0669 72.938L92.4209 72.1886C91.2219 67.6925 87.4252 64.0706 85.6767 62.8217Z" fill="#EAEAEA" stroke="black" stroke-width="0.749353"/>
<path d="M50.4573 13.3644H1C5.19638 20.8579 12.2403 22.9811 15.2377 23.106L59.0749 22.3566C55.478 15.4626 51.8311 13.4893 50.4573 13.3644Z" fill="#EAEAEA"/>
<path d="M63.9457 25.354L6.24547 25.7287C7.44444 31.1241 14.7381 33.2222 18.2351 33.5969L68.4418 32.8476V32.0982C68.4418 28.2016 65.4444 25.9785 63.9457 25.354Z" fill="#EAEAEA"/>
<path d="M69.9405 34.721L11.8656 35.4703C11.2661 39.6667 21.3574 41.7149 26.478 42.2145L72.9379 41.0905C72.3385 37.1938 70.6899 35.2205 69.9405 34.721Z" fill="#EAEAEA"/>
<path d="M72.1886 43.3385L18.6098 43.7132C17.7106 48.5091 26.7278 50.7072 31.3488 51.2067H77.4341V50.8321C77.4341 47.8346 73.9371 44.5874 72.1886 43.3385Z" fill="#EAEAEA"/>
<path d="M77.4341 53.0801H29.4754C30.6744 57.5762 38.9672 60.199 42.9638 60.9483L83.8036 60.5736C84.0534 61.323 84.403 62.2972 83.8036 60.199C83.2041 58.1008 79.3074 54.5788 77.4341 53.0801Z" fill="#EAEAEA"/>
<path d="M50.4573 13.3644H1C5.19638 20.8579 12.2403 22.9811 15.2377 23.106L59.0749 22.3566C55.478 15.4626 51.8311 13.4893 50.4573 13.3644Z" stroke="black" stroke-width="0.749353"/>
<path d="M63.9457 25.354L6.24547 25.7287C7.44444 31.1241 14.7381 33.2222 18.2351 33.5969L68.4418 32.8476V32.0982C68.4418 28.2016 65.4444 25.9785 63.9457 25.354Z" stroke="black" stroke-width="0.749353"/>
<path d="M69.9405 34.721L11.8656 35.4703C11.2661 39.6667 21.3574 41.7149 26.478 42.2145L72.9379 41.0905C72.3385 37.1938 70.6899 35.2205 69.9405 34.721Z" stroke="black" stroke-width="0.749353"/>
<path d="M72.1886 43.3385L18.6098 43.7132C17.7106 48.5091 26.7278 50.7072 31.3488 51.2067H77.4341V50.8321C77.4341 47.8346 73.9371 44.5874 72.1886 43.3385Z" stroke="black" stroke-width="0.749353"/>
<path d="M77.4341 53.0801H29.4754C30.6744 57.5762 38.9672 60.199 42.9638 60.9483L83.8036 60.5736C84.0534 61.323 84.403 62.2972 83.8036 60.199C83.2041 58.1008 79.3074 54.5788 77.4341 53.0801Z" stroke="black" stroke-width="0.749353"/>
<path d="M228.056 27.302C226.257 27.9014 206.824 46.2856 197.332 55.4027L196.208 57.6508L194.709 67.767L195.084 68.5164L196.208 68.8911L196.957 68.5164L197.707 67.767L198.081 67.0177L198.456 66.2683L198.831 65.519L199.205 65.1443H199.955H200.704L201.454 65.8937L201.828 66.2683L202.952 65.8937L203.702 65.519L204.826 64.7696L205.575 63.6456L206.324 62.8962L207.448 61.7722H210.82L212.319 59.5241L213.443 58.7748L215.691 58.4001H216.815L219.063 54.6533L222.81 54.2787L223.559 50.5319H226.557C227.431 49.4079 229.18 47.0849 229.18 46.7851C229.18 46.4854 231.428 45.9109 232.552 45.6611L234.425 40.7903L237.797 39.6663C237.913 38.503 238.073 36.3213 237.852 36.2697L241.169 34.7955L241.544 31.4234L244.916 28.0513C240.045 27.5517 229.854 26.7025 228.056 27.302Z" fill="#EAEAEA" stroke="black" stroke-width="0.749353"/>
<path d="M216.44 88.3743H222.81C223.184 88.3743 223.859 88.1495 223.559 87.2502C223.259 86.351 218.688 79.8816 216.44 76.7593L214.567 73.0125L213.817 71.5138L213.443 70.0151L212.693 68.5164L211.944 67.0177L211.195 65.8937L210.445 65.1443L210.071 64.7696L208.947 64.395H208.197H207.448L206.699 64.7696L206.333 65.8663C206.327 65.8028 206.324 65.8226 206.324 65.8937L206.333 65.8663C206.36 66.138 206.456 67.9325 206.699 73.7619C207.298 80.6559 213.443 86.376 216.44 88.3743Z" fill="#EAEAEA"/>
<path d="M207.448 79.0074C208.347 82.6042 212.319 87.9996 214.192 90.2477L214.567 90.997L214.192 91.7464L213.443 92.8704L212.693 93.6197H211.195H209.696H208.572L207.448 92.8704L205.2 91.3717L202.577 88.3743L200.704 84.2528L198.83 75.6353L198.456 73.7619V71.8885V70.7645L198.83 69.6404L199.205 68.5164L199.955 67.767L200.704 67.0177H201.453C201.578 67.0177 201.978 67.1676 202.577 67.767C203.177 68.3665 204.576 71.264 205.2 72.6378C205.575 73.2623 206.549 75.4105 207.448 79.0074Z" fill="#EAEAEA"/>
<path d="M201.453 89.4983L205.2 93.9944V94.7438L204.825 95.1185L204.451 95.8678L203.327 96.2425L202.203 96.6172H200.704L199.58 96.2425H198.081L196.957 95.8678L195.833 95.1185L194.709 94.7438L193.96 93.6197V74.5112V73.0125L194.334 72.2632H195.084H195.458L195.833 72.6378L196.582 73.7619L198.081 76.3846L198.456 78.6327V79.7567L198.83 81.6301L199.205 83.8781L199.955 85.7515L200.704 87.6249L201.453 89.4983Z" fill="#EAEAEA"/>
<path d="M216.44 88.3743H222.81C223.184 88.3743 223.859 88.1495 223.559 87.2502C223.259 86.351 218.688 79.8816 216.44 76.7593L214.567 73.0125L213.817 71.5138L213.443 70.0151L212.693 68.5164L211.944 67.0177L211.195 65.8937L210.445 65.1443L210.071 64.7696L208.947 64.395H208.197H207.448L206.699 64.7696L206.333 65.8663C206.327 65.8028 206.324 65.8226 206.324 65.8937L206.333 65.8663C206.36 66.138 206.456 67.9325 206.699 73.7619C207.298 80.6559 213.443 86.376 216.44 88.3743Z" stroke="black" stroke-width="0.749353"/>
<path d="M207.448 79.0074C208.347 82.6042 212.319 87.9996 214.192 90.2477L214.567 90.997L214.192 91.7464L213.443 92.8704L212.693 93.6197H211.195H209.696H208.572L207.448 92.8704L205.2 91.3717L202.577 88.3743L200.704 84.2528L198.83 75.6353L198.456 73.7619V71.8885V70.7645L198.83 69.6404L199.205 68.5164L199.955 67.767L200.704 67.0177H201.453C201.578 67.0177 201.978 67.1676 202.577 67.767C203.177 68.3665 204.576 71.264 205.2 72.6378C205.575 73.2623 206.549 75.4105 207.448 79.0074Z" stroke="black" stroke-width="0.749353"/>
<path d="M201.453 89.4983L205.2 93.9944V94.7438L204.825 95.1185L204.451 95.8678L203.327 96.2425L202.203 96.6172H200.704L199.58 96.2425H198.081L196.957 95.8678L195.833 95.1185L194.709 94.7438L193.96 93.6197V74.5112V73.0125L194.334 72.2632H195.084H195.458L195.833 72.6378L196.582 73.7619L198.081 76.3846L198.456 78.6327V79.7567L198.83 81.6301L199.205 83.8781L199.955 85.7515L200.704 87.6249L201.453 89.4983Z" stroke="black" stroke-width="0.749353"/>
<path d="M216.815 61.3975L231.428 81.6301C230.828 82.5293 228.93 84.1279 228.056 84.6275H225.808L224.309 83.8782C219.213 81.78 215.192 70.7645 213.818 65.519V63.6456V62.1469V61.3975L214.193 60.6482H214.942H215.691L216.815 61.3975Z" fill="#EAEAEA" stroke="black" stroke-width="0.749353"/>
<path d="M227.307 52.0306L247.165 68.5164L246.79 69.2658L246.041 70.3898L245.292 71.5138L244.542 71.8885L243.044 72.6379L240.421 72.2632C235.925 71.0642 230.554 63.2709 228.431 59.5242L226.932 57.2761L226.183 55.0281V52.0306H226.932H227.307Z" fill="#EAEAEA"/>
<path d="M231.803 66.643L240.421 75.2606H240.618L240.421 76.01L239.672 76.7593L238.922 77.8833C238.797 78.0082 238.473 78.258 238.173 78.258C237.798 78.258 237.798 78.6327 237.049 79.0074C236.449 79.3071 236.549 79.1323 236.674 79.0074H234.801L234.051 78.258C233.752 77.9583 232.428 77.5417 231.803 77.3709L230.679 76.7593L229.93 75.6353C229.43 75.2606 228.431 74.4363 228.431 74.1366C228.431 73.8368 228.181 74.0117 228.057 74.1366L226.932 73.0125C226.683 72.513 226.108 71.4389 225.808 71.1392C225.434 70.7645 225.434 71.1392 225.059 70.7645C224.684 70.3898 224.429 70.3898 223.935 69.6404C223.54 69.041 223.521 69.1409 223.56 69.2658C223.436 69.1409 223.186 68.8162 223.186 68.5164C223.186 68.1417 222.811 67.7671 222.436 67.3924L222.062 67.0177V66.643L221.312 65.1443C221.013 64.8446 221.187 64.7696 221.312 64.7696C221.312 64.6448 221.237 64.1702 220.938 63.2709C220.938 62.8963 220.563 62.8963 220.563 62.5216C220.563 62.2218 220.313 62.1469 220.188 62.1469V61.3976V61.0229V60.2735V59.8989V59.5242V58.4001C220.188 57.8007 219.939 57.9006 219.814 58.0255V57.6508L220.188 57.2761L220.563 56.9014C220.688 56.7765 220.938 56.4518 220.938 56.1521C220.938 55.8523 221.937 56.7765 222.436 57.2761C223.56 57.6508 226.932 61.0228 228.057 62.1469L228.057 62.1469C229.181 63.2709 229.93 64.7696 231.803 66.643Z" fill="#EAEAEA"/>
<path d="M227.307 52.0306L247.165 68.5164L246.79 69.2658L246.041 70.3898L245.292 71.5138L244.542 71.8885L243.044 72.6379L240.421 72.2632C235.925 71.0642 230.554 63.2709 228.431 59.5242L226.932 57.2761L226.183 55.0281V52.0306H226.932H227.307Z" stroke="black" stroke-width="0.749353"/>
<path d="M231.803 66.643L240.421 75.2606H240.618L240.421 76.01L239.672 76.7593L238.922 77.8833C238.797 78.0082 238.473 78.258 238.173 78.258C237.798 78.258 237.798 78.6327 237.049 79.0074C236.449 79.3071 236.549 79.1323 236.674 79.0074H234.801L234.051 78.258C233.752 77.9583 232.428 77.5417 231.803 77.3709L230.679 76.7593L229.93 75.6353C229.43 75.2606 228.431 74.4363 228.431 74.1366C228.431 73.8368 228.181 74.0117 228.057 74.1366L226.932 73.0125C226.683 72.513 226.108 71.4389 225.808 71.1392C225.434 70.7645 225.434 71.1392 225.059 70.7645C224.684 70.3898 224.429 70.3898 223.935 69.6404C223.54 69.041 223.521 69.1409 223.56 69.2658C223.436 69.1409 223.186 68.8162 223.186 68.5164C223.186 68.1417 222.811 67.7671 222.436 67.3924L222.062 67.0177V66.643L221.312 65.1443C221.013 64.8446 221.187 64.7696 221.312 64.7696C221.312 64.6448 221.237 64.1702 220.938 63.2709C220.938 62.8963 220.563 62.8963 220.563 62.5216C220.563 62.2218 220.313 62.1469 220.188 62.1469V61.3976V61.0229V60.2735V59.8989V59.5242V58.4001C220.188 57.8007 219.939 57.9006 219.814 58.0255V57.6508L220.188 57.2761L220.563 56.9014C220.688 56.7765 220.938 56.4518 220.938 56.1521C220.938 55.8523 221.937 56.7765 222.436 57.2761C223.56 57.6508 226.932 61.0228 228.057 62.1469L228.057 62.1469C229.181 63.2709 229.93 64.7696 231.803 66.643Z" stroke="black" stroke-width="0.749353"/>
<path d="M253.534 15.3123H283.133C283.258 13.6887 283.433 11.5655 283.133 16.0617C282.834 20.5578 276.264 23.9299 273.017 25.0539L244.542 24.6792L253.534 15.3123Z" fill="#EAEAEA"/>
<path d="M247.539 27.6766L270.02 28.0513C270.619 31.6482 268.271 33.7964 267.022 34.4208L256.531 34.0461C249.637 31.6482 247.664 28.8007 247.539 27.6766Z" fill="#EAEAEA"/>
<path d="M265.898 36.6689C261.402 36.2942 251.136 34.8704 246.04 32.1728H245.291H244.542V35.5448C247.164 38.5423 253.759 44.2373 259.154 43.0384C259.494 42.9628 259.801 42.8948 260.078 42.8338C259.886 42.9095 259.702 42.9778 259.529 43.0384C261.518 42.5703 264.187 41.9268 260.078 42.8338C262.66 41.8158 266.735 39.4587 265.898 36.6689Z" fill="#EAEAEA"/>
<path d="M241.17 37.4182C249.862 42.5138 259.529 44.5371 263.276 44.9118C263.575 48.5087 261.402 50.1572 260.278 50.5319H255.033C251.436 51.4311 244.042 44.1624 240.795 40.4156C239.896 37.718 240.67 37.2933 241.17 37.4182Z" fill="#EAEAEA"/>
<path d="M249.787 50.1572C252.785 51.9557 257.531 52.4053 259.529 52.4053H259.903C259.903 53.6043 257.655 56.4018 256.531 57.6508C257.031 57.7757 256.831 57.8756 252.035 57.2761C247.239 56.6766 242.294 52.5302 240.42 50.5319C240.046 50.2821 239.146 49.5578 238.547 48.6585C237.947 47.7593 236.549 45.786 235.924 44.9118L235.549 44.1624L235.175 43.4131V43.0384L235.549 42.6637L235.924 42.289H237.048C240.046 44.1624 246.79 48.3588 249.787 50.1572Z" fill="#EAEAEA"/>
<path d="M232.177 47.9092C232.477 48.5087 246.54 57.1512 253.534 61.3975V62.5216C253.534 63.7205 252.035 65.0194 251.286 65.519H249.413C244.017 64.6198 235.175 56.4018 231.428 52.4053L231.053 50.9066V47.9092H232.177Z" fill="#EAEAEA"/>
<path d="M253.534 15.3123H283.133C283.258 13.6887 283.433 11.5655 283.133 16.0617C282.834 20.5578 276.264 23.9299 273.017 25.0539L244.542 24.6792L253.534 15.3123Z" stroke="black" stroke-width="0.749353"/>
<path d="M247.539 27.6766L270.02 28.0513C270.619 31.6482 268.271 33.7964 267.022 34.4208L256.531 34.0461C249.637 31.6482 247.664 28.8007 247.539 27.6766Z" stroke="black" stroke-width="0.749353"/>
<path d="M265.898 36.6689C261.402 36.2942 251.136 34.8704 246.04 32.1728H245.291H244.542V35.5448C247.164 38.5423 253.759 44.2373 259.154 43.0384C259.494 42.9628 259.801 42.8948 260.078 42.8338C259.886 42.9095 259.702 42.9778 259.529 43.0384C261.518 42.5703 264.187 41.9268 260.078 42.8338C262.66 41.8158 266.735 39.4587 265.898 36.6689Z" stroke="black" stroke-width="0.749353"/>
<path d="M241.17 37.4182C249.862 42.5138 259.529 44.5371 263.276 44.9118C263.575 48.5087 261.402 50.1572 260.278 50.5319H255.033C251.436 51.4311 244.042 44.1624 240.795 40.4156C239.896 37.718 240.67 37.2933 241.17 37.4182Z" stroke="black" stroke-width="0.749353"/>
<path d="M249.787 50.1572C252.785 51.9557 257.531 52.4053 259.529 52.4053H259.903C259.903 53.6043 257.655 56.4018 256.531 57.6508C257.031 57.7757 256.831 57.8756 252.035 57.2761C247.239 56.6766 242.294 52.5302 240.42 50.5319C240.046 50.2821 239.146 49.5578 238.547 48.6585C237.947 47.7593 236.549 45.786 235.924 44.9118L235.549 44.1624L235.175 43.4131V43.0384L235.549 42.6637L235.924 42.289H237.048C240.046 44.1624 246.79 48.3588 249.787 50.1572Z" stroke="black" stroke-width="0.749353"/>
<path d="M232.177 47.9092C232.477 48.5087 246.54 57.1512 253.534 61.3975V62.5216C253.534 63.7205 252.035 65.0194 251.286 65.519H249.413C244.017 64.6198 235.175 56.4018 231.428 52.4053L231.053 50.9066V47.9092H232.177Z" stroke="black" stroke-width="0.749353"/>
<path d="M253.908 64.7696L294.748 65.1443C293.249 70.2399 278.637 73.7618 271.518 74.8859L247.164 74.1365C248.363 69.6404 252.16 66.0185 253.908 64.7696Z" fill="#EAEAEA" stroke="black" stroke-width="0.749353"/>
<path d="M289.128 15.3123H338.585C334.389 22.8058 327.345 24.929 324.347 25.0539L280.51 24.3045C284.107 17.4104 287.754 15.4371 289.128 15.3123Z" fill="#EAEAEA"/>
<path d="M275.639 27.3019L333.339 27.6766C332.141 33.0719 324.847 35.1701 321.35 35.5448L271.143 34.7954V34.0461C271.143 30.1495 274.141 27.9264 275.639 27.3019Z" fill="#EAEAEA"/>
<path d="M269.644 36.6688L327.719 37.4182C328.319 41.6146 318.228 43.6628 313.107 44.1624L266.647 43.0383C267.247 39.1417 268.895 37.1684 269.644 36.6688Z" fill="#EAEAEA"/>
<path d="M267.396 45.2864L320.975 45.6611C321.874 50.4569 312.857 52.655 308.236 53.1546H262.151V52.7799C262.151 49.7825 265.648 46.5353 267.396 45.2864Z" fill="#EAEAEA"/>
<path d="M262.151 55.028H310.11C308.911 59.5241 300.618 62.1468 296.621 62.8962L255.781 62.5215C255.532 63.2709 255.182 64.245 255.781 62.1468C256.381 60.0487 260.278 56.5267 262.151 55.028Z" fill="#EAEAEA"/>
<path d="M289.128 15.3123H338.585C334.389 22.8058 327.345 24.929 324.347 25.0539L280.51 24.3045C284.107 17.4104 287.754 15.4371 289.128 15.3123Z" stroke="black" stroke-width="0.749353"/>
<path d="M275.639 27.3019L333.339 27.6766C332.141 33.0719 324.847 35.1701 321.35 35.5448L271.143 34.7954V34.0461C271.143 30.1495 274.141 27.9264 275.639 27.3019Z" stroke="black" stroke-width="0.749353"/>
<path d="M269.644 36.6688L327.719 37.4182C328.319 41.6146 318.228 43.6628 313.107 44.1624L266.647 43.0383C267.247 39.1417 268.895 37.1684 269.644 36.6688Z" stroke="black" stroke-width="0.749353"/>
<path d="M267.396 45.2864L320.975 45.6611C321.874 50.4569 312.857 52.655 308.236 53.1546H262.151V52.7799C262.151 49.7825 265.648 46.5353 267.396 45.2864Z" stroke="black" stroke-width="0.749353"/>
<path d="M262.151 55.028H310.11C308.911 59.5241 300.618 62.1468 296.621 62.8962L255.781 62.5215C255.532 63.2709 255.182 64.245 255.781 62.1468C256.381 60.0487 260.278 56.5267 262.151 55.028Z" stroke="black" stroke-width="0.749353"/>
<path d="M174.33 114.152H165.333C164.423 114.152 163.723 114.957 163.848 115.858L165.678 128.972C165.782 129.712 166.415 130.263 167.163 130.263H173.11C173.884 130.263 174.531 129.674 174.602 128.904L175.822 115.79C175.904 114.911 175.213 114.152 174.33 114.152Z" fill="#EAEAEA" stroke="black" stroke-width="0.749353"/>
<path d="M177.099 89.4237H162.861V105.535C168.856 112.429 174.851 108.407 177.099 105.535V89.4237Z" fill="#EAEAEA" stroke="black" stroke-width="0.749353"/>
<path d="M164.02 6.88993C163.685 4.87564 165.839 4.37207 166.958 4.37207C168.744 4.66981 169.134 6.3098 169.092 7.06736C169.221 6.30638 169.328 5.67707 169.088 7.12058C169.081 7.19442 169.07 7.25824 169.056 7.30958C169.043 7.38677 169.029 7.46132 169.013 7.53333C168.608 9.34049 167.211 9.54232 166.538 9.4078C165.144 9.00951 164.505 8.39465 164.255 7.84351C164.268 8.15743 164.22 8.08489 164.02 6.88993Z" fill="#EAEAEA"/>
<path d="M169.056 7.30958C169.043 7.38677 169.029 7.46132 169.013 7.53333M169.056 7.30958C169.392 5.29529 169.167 6.61946 169.013 7.53333M169.056 7.30958C169.211 6.75005 168.972 4.70779 166.958 4.37207C165.839 4.37207 163.685 4.87564 164.02 6.88993C164.356 8.90423 164.262 7.72922 164.173 6.88993C163.982 7.44946 164.188 8.73637 166.538 9.4078C167.211 9.54232 168.608 9.34049 169.013 7.53333" stroke="black" stroke-width="0.839288"/>
<path d="M174.102 108.532C172.604 108.532 171.729 110.78 171.479 111.904H179.722L181.221 114.902L181.596 123.145C183.394 126.742 185.093 124.643 185.717 123.145V116.4C185.717 114.602 187.216 114.152 187.965 114.152L196.208 116.4V114.152C188.415 110.555 186.716 107.908 186.841 107.034C186.841 104.036 186.092 103.287 185.717 103.287H182.72V107.783L181.221 108.532H174.102Z" fill="#EAEAEA" stroke="black" stroke-width="0.749353"/>
</svg>
