<svg width="113" height="40" viewBox="0 0 113 40" fill="none" xmlns="http://www.w3.org/2000/svg">
<path d="M74.2657 33.1754V19.645H77.0201V30.8769H83.8691V33.1754H74.2657ZM98.1439 33.1754H95.1475L93.9564 30.0766H88.5033L87.3773 33.1754H84.4553L89.7689 19.5333H92.6815L98.1439 33.1754ZM93.0724 27.7781L91.1926 22.7158L89.3501 27.7781H93.0724ZM99.6235 19.5333H105.077C106.156 19.5333 106.959 19.5798 107.487 19.6729C108.02 19.7597 108.495 19.9458 108.911 20.2312C109.332 20.5166 109.683 20.8981 109.962 21.3758C110.241 21.8473 110.381 22.3777 110.381 22.9671C110.381 23.6061 110.207 24.1923 109.86 24.7258C109.519 25.2594 109.053 25.6595 108.464 25.9263C109.295 26.1682 109.934 26.5808 110.381 27.1639C110.828 27.7471 111.051 28.4326 111.051 29.2205C111.051 29.8408 110.905 30.4457 110.614 31.0351C110.328 31.6182 109.934 32.0866 109.432 32.4402C108.935 32.7876 108.321 33.0016 107.589 33.0823C107.13 33.1319 106.023 33.1629 104.267 33.1754H99.6235V19.5333ZM102.378 21.8039V24.9585H104.183C105.257 24.9585 105.923 24.943 106.184 24.9119C106.656 24.8561 107.025 24.6948 107.291 24.4281C107.564 24.1551 107.701 23.7984 107.701 23.3579C107.701 22.936 107.583 22.5948 107.347 22.3343C107.118 22.0675 106.773 21.9062 106.314 21.8504C106.041 21.8194 105.257 21.8039 103.96 21.8039H102.378ZM102.378 27.229V30.8769H104.928C105.92 30.8769 106.55 30.8489 106.817 30.7931C107.226 30.7187 107.558 30.5388 107.813 30.2534C108.073 29.9618 108.203 29.5741 108.203 29.0902C108.203 28.6807 108.104 28.3333 107.906 28.0479C107.707 27.7626 107.419 27.5547 107.04 27.4245C106.668 27.2942 105.855 27.229 104.602 27.229H102.378Z" fill="white"/>
<path d="M1.30385 20.2987L0 20.8375L0.000134115 21.6056L0.994581 21.905C1.69819 21.905 2.05 21.905 2.33147 21.7427C2.39842 21.7041 2.46153 21.6592 2.51994 21.6086C2.76552 21.3959 2.88085 21.0635 3.11151 20.3988L4.81872 15.4789L6.76518 23.19L7.18073 24.884L7.46367 25.7328C7.52198 25.9078 7.59264 26.0784 7.67511 26.2433L7.814 26.5211C7.88549 26.664 7.97674 26.7962 8.08509 26.9138L8.26412 27.0928L8.46987 27.2914C8.59622 27.4134 8.75264 27.4997 8.92319 27.5415C9.00071 27.5606 9.08025 27.5702 9.16008 27.5702H9.21893H9.26219C9.35237 27.5702 9.44222 27.5593 9.52979 27.5378C9.6908 27.4982 9.84103 27.4233 9.96962 27.3186L10.1737 27.1525L10.3528 26.9734L10.5443 26.7819C10.7699 26.5073 10.94 26.1915 11.0454 25.8521L15.7603 10.6611H16.4028L19.3871 23.6735L23.0291 37.9384L23.3327 38.5454L23.6362 38.8489L24.2432 39.1524H24.5467H24.874H25.1537L25.4572 38.8489L25.7607 38.2419L31.1805 22.2262L62.5457 21.3062L29.8955 20.2987L26.0404 32.1851L18.6516 1.66595L18.6377 1.60168C18.6046 1.44915 18.5599 1.29938 18.5039 1.1537L18.4276 0.955242C18.3632 0.787587 18.2727 0.631153 18.1595 0.491709L18.1364 0.463371C18.0796 0.393337 18.0158 0.329201 17.9461 0.271929L17.8524 0.194919C17.7443 0.106108 17.6162 0.0450955 17.4791 0.0172074C17.4228 0.00576474 17.3656 0 17.3082 0H17.2155H17.1192C17.0642 0 17.0092 0.00520008 16.9551 0.015531C16.8038 0.0444466 16.6628 0.112852 16.5463 0.213817L16.4519 0.295702C16.404 0.337218 16.3592 0.38208 16.3177 0.42995L16.2724 0.482131C16.1457 0.628255 16.0378 0.789714 15.9513 0.962718L15.8936 1.07806C15.8049 1.25546 15.7322 1.44042 15.6764 1.63074L10.0956 20.6597L9.77433 21.6234L7.08643 12.0945L6.9055 11.6061L6.6728 11.0011C6.62909 10.8875 6.57563 10.7778 6.51299 10.6735C6.45648 10.5793 6.39269 10.4896 6.3222 10.4054L6.21812 10.281C6.15462 10.2051 6.08436 10.1351 6.00823 10.0719L5.84954 9.94018C5.79807 9.89745 5.7391 9.86467 5.67564 9.84352C5.62066 9.82519 5.56309 9.81585 5.50514 9.81585H5.47328H5.35393H5.23458H5.1749L5.0357 9.82817C4.90622 9.83962 4.78249 9.88687 4.67833 9.96463C4.65136 9.98477 4.62587 10.0068 4.60207 10.0306L4.51847 10.1142L4.39009 10.2426C4.35637 10.2763 4.3252 10.3125 4.29683 10.3508C4.22956 10.4417 4.17879 10.5437 4.14682 10.6521L1.30385 20.2987Z" fill="url(#paint0_linear_58_144)"/>
<path d="M29.3454 15.2491V6.85397H32.0656C33.0963 6.85397 33.7682 6.89596 34.0813 6.97995C34.5623 7.10593 34.9651 7.38081 35.2896 7.80457C35.6141 8.22452 35.7764 8.76854 35.7764 9.43664C35.7764 9.95203 35.6828 10.3853 35.4958 10.7366C35.3087 11.0878 35.0701 11.3646 34.7799 11.5669C34.4936 11.7654 34.2016 11.8971 33.9038 11.962C33.4991 12.0422 32.9131 12.0823 32.1457 12.0823H31.0405V15.2491H29.3454ZM31.0405 8.27415V10.6564H31.9682C32.6363 10.6564 33.083 10.6125 33.3082 10.5247C33.5335 10.4369 33.7091 10.2994 33.8351 10.1124C33.9649 9.9253 34.0298 9.70769 34.0298 9.45954C34.0298 9.15413 33.94 8.90216 33.7606 8.70364C33.5812 8.50512 33.354 8.38104 33.0792 8.33141C32.8768 8.29324 32.4702 8.27415 31.8594 8.27415H31.0405ZM37.1679 15.2491V6.85397H43.3927V8.27415H38.863V10.1353H43.0777V11.5497H38.863V13.8346H43.553V15.2491H37.1679ZM44.9961 15.2491V6.85397H48.5637C49.4609 6.85397 50.1118 6.93032 50.5165 7.08303C50.925 7.23192 51.2514 7.49916 51.4957 7.88474C51.7401 8.27033 51.8622 8.71128 51.8622 9.20758C51.8622 9.8375 51.6771 10.3586 51.3068 10.7709C50.9364 11.1794 50.3829 11.4371 49.6461 11.544C50.0126 11.7578 50.3142 11.9926 50.5509 12.2484C50.7914 12.5042 51.114 12.9585 51.5186 13.6113L52.5437 15.2491H50.5165L49.291 13.4223C48.8558 12.7695 48.558 12.3591 48.3977 12.1911C48.2373 12.0193 48.0674 11.9029 47.888 11.8418C47.7086 11.7769 47.4242 11.7444 47.0347 11.7444H46.6912V15.2491H44.9961ZM46.6912 10.4044H47.9453C48.7584 10.4044 49.2662 10.3701 49.4685 10.3013C49.6709 10.2326 49.8293 10.1143 49.9438 9.9463C50.0584 9.77832 50.1156 9.56835 50.1156 9.31638C50.1156 9.03387 50.0393 8.80672 49.8866 8.63492C49.7377 8.45931 49.5258 8.34859 49.2509 8.30278C49.1135 8.28369 48.7012 8.27415 48.014 8.27415H46.6912V10.4044ZM53.4771 15.2491V6.85397H59.2323V8.27415H55.1722V10.2613H58.6768V11.6814H55.1722V15.2491H53.4771ZM60.2917 11.1031C60.2917 10.2479 60.4196 9.53017 60.6754 8.94988C60.8663 8.5223 61.1259 8.13862 61.4542 7.79885C61.7863 7.45907 62.149 7.2071 62.5422 7.04294C63.0653 6.82151 63.6685 6.7108 64.3518 6.7108C65.5888 6.7108 66.5775 7.09448 67.3182 7.86184C68.0626 8.6292 68.4349 9.69624 68.4349 11.063C68.4349 12.4183 68.0665 13.4796 67.3296 14.2469C66.5928 15.0105 65.6079 15.3922 64.3747 15.3922C63.1263 15.3922 62.1337 15.0124 61.3969 14.2527C60.6601 13.4891 60.2917 12.4393 60.2917 11.1031ZM62.0383 11.0458C62.0383 11.9964 62.2578 12.718 62.6969 13.2104C63.1359 13.6991 63.6933 13.9434 64.369 13.9434C65.0447 13.9434 65.5983 13.701 66.0297 13.2162C66.4649 12.7275 66.6825 11.9964 66.6825 11.0229C66.6825 10.0608 66.4707 9.3431 66.0469 8.86971C65.6269 8.39632 65.0676 8.15962 64.369 8.15962C63.6704 8.15962 63.1073 8.40013 62.6797 8.88116C62.2521 9.35838 62.0383 10.0799 62.0383 11.0458ZM69.7691 15.2491V6.85397H73.3368C74.2339 6.85397 74.8849 6.93032 75.2895 7.08303C75.698 7.23192 76.0244 7.49916 76.2688 7.88474C76.5131 8.27033 76.6353 8.71128 76.6353 9.20758C76.6353 9.8375 76.4501 10.3586 76.0798 10.7709C75.7095 11.1794 75.1559 11.4371 74.4191 11.544C74.7856 11.7578 75.0872 11.9926 75.3239 12.2484C75.5644 12.5042 75.887 12.9585 76.2917 13.6113L77.3167 15.2491H75.2895L74.0641 13.4223C73.6288 12.7695 73.3311 12.3591 73.1707 12.1911C73.0104 12.0193 72.8405 11.9029 72.6611 11.8418C72.4816 11.7769 72.1972 11.7444 71.8078 11.7444H71.4642V15.2491H69.7691ZM71.4642 10.4044H72.7183C73.5315 10.4044 74.0392 10.3701 74.2416 10.3013C74.4439 10.2326 74.6024 10.1143 74.7169 9.9463C74.8314 9.77832 74.8887 9.56835 74.8887 9.31638C74.8887 9.03387 74.8123 8.80672 74.6596 8.63492C74.5107 8.45931 74.2988 8.34859 74.024 8.30278C73.8865 8.28369 73.4742 8.27415 72.787 8.27415H71.4642V10.4044ZM78.2158 15.2491V6.85397H80.7527L82.2759 12.5805L83.782 6.85397H86.3246V15.2491H84.7498V8.64065L83.0834 15.2491H81.4513L79.7906 8.64065V15.2491H78.2158ZM95.5787 15.2491H93.7347L93.0018 13.3421H89.646L88.9531 15.2491H87.1549L90.4248 6.85397H92.2172L95.5787 15.2491ZM92.4577 11.9277L91.301 8.81244L90.1671 11.9277H92.4577ZM96.5007 15.2491V6.85397H98.1499L101.586 12.4603V6.85397H103.161V15.2491H101.46L98.0755 9.7745V15.2491H96.5007ZM104.529 12.5175L106.179 12.3572C106.278 12.9107 106.478 13.3173 106.78 13.5769C107.085 13.8365 107.496 13.9663 108.011 13.9663C108.557 13.9663 108.967 13.8518 109.242 13.6227C109.521 13.3899 109.66 13.1188 109.66 12.8096C109.66 12.6111 109.601 12.4431 109.483 12.3056C109.368 12.1644 109.166 12.0422 108.876 11.9391C108.677 11.8704 108.225 11.7483 107.519 11.5726C106.61 11.3474 105.972 11.0706 105.606 10.7423C105.09 10.2803 104.833 9.71724 104.833 9.05296C104.833 8.62538 104.953 8.22643 105.194 7.85611C105.438 7.48198 105.787 7.19756 106.242 7.00286C106.7 6.80815 107.251 6.7108 107.897 6.7108C108.95 6.7108 109.742 6.94177 110.273 7.40371C110.807 7.86566 111.088 8.48221 111.115 9.25339L109.42 9.32783C109.347 8.89643 109.191 8.5872 108.95 8.40013C108.713 8.20925 108.357 8.11381 107.879 8.11381C107.387 8.11381 107.001 8.21497 106.723 8.41731C106.543 8.54711 106.453 8.72082 106.453 8.93843C106.453 9.13695 106.537 9.30684 106.705 9.44809C106.919 9.62752 107.438 9.81459 108.263 10.0093C109.088 10.204 109.697 10.4063 110.09 10.6163C110.487 10.8225 110.796 11.1069 111.017 11.4696C111.243 11.8284 111.355 12.2732 111.355 12.8038C111.355 13.2849 111.222 13.7354 110.954 14.1553C110.687 14.5753 110.309 14.8883 109.821 15.0945C109.332 15.2968 108.723 15.398 107.994 15.398C106.933 15.398 106.117 15.1536 105.549 14.665C104.98 14.1725 104.64 13.4567 104.529 12.5175Z" fill="white"/>
<defs>
<linearGradient id="paint0_linear_58_144" x1="31.2728" y1="0" x2="31.2728" y2="39.1524" gradientUnits="userSpaceOnUse">
<stop stop-color="#CE0000"/>
<stop offset="1" stop-color="#CE0000" stop-opacity="0"/>
</linearGradient>
</defs>
</svg>
