<svg width="17" height="18" viewBox="0 0 17 18" fill="none" xmlns="http://www.w3.org/2000/svg">
<path d="M3.24552 2.7295C6.55644 0.228965 11.2884 0.433349 14.3496 3.21424C17.4643 6.04215 17.8898 10.6643 15.3281 13.9733C12.9141 17.0907 8.5627 18.118 4.9392 16.5101L4.74214 16.4187L1.02606 17.2607L0.962358 17.2724L0.868926 17.2806L0.772945 17.2769L0.735571 17.2724L0.642139 17.2543L0.552953 17.2236L0.468014 17.1838L0.40346 17.1458L0.311726 17.0762L0.242925 17.0093L0.18092 16.9342L0.135902 16.8664L0.080692 16.7624L0.0450176 16.6665L0.0186866 16.5643L0.00764456 16.4965L0 16.397L0.00339751 16.2948L0.00764456 16.255L0.0246323 16.1555L0.043319 16.0904L1.02012 12.9695L1.00143 12.937C-0.875721 9.54834 -0.0254815 5.34761 3.04931 2.88234L3.24467 2.73041L3.24552 2.7295Z" fill="#401C1C"/>
</svg>
