<svg width="19" height="21" viewBox="0 0 19 21" fill="none" xmlns="http://www.w3.org/2000/svg">
<path d="M7 4.15665e-08C7.17928 -5.32884e-05 7.35528 0.0512113 7.50957 0.148427C7.66386 0.245642 7.79076 0.385233 7.877 0.552585L7.928 0.669703L9.928 5.99326C10.0086 6.20743 10.0216 6.44367 9.96513 6.66642C9.90868 6.88916 9.78581 7.08636 9.615 7.22832L9.515 7.30072L7.841 8.36969L7.904 8.47936C8.70076 9.82621 9.77101 10.9657 11.036 11.814L11.138 11.88L12.143 10.0998C12.2544 9.9019 12.4231 9.74783 12.6239 9.66084C12.8246 9.57386 13.0464 9.55866 13.256 9.61753L13.371 9.65906L18.371 11.7885C18.5375 11.8592 18.6831 11.9763 18.7925 12.1274C18.9019 12.2786 18.9712 12.4583 18.993 12.6477L19 12.7765V17.0354C19 18.7996 17.657 20.2295 15.94 20.2274C7.361 19.6727 0.522 12.3911 4.66045e-09 3.19413C-4.26217e-05 2.3794 0.292325 1.59545 0.817284 1.00268C1.34224 0.409906 2.06011 0.0531211 2.824 0.00532372L3 4.15665e-08H7Z" fill="#401C1C"/>
</svg>
