<svg width="17" height="22" viewBox="0 0 17 22" fill="none" xmlns="http://www.w3.org/2000/svg">
<path d="M14.2502 3.5685C15.7828 5.20002 16.6593 7.40219 16.6944 9.70934C16.7296 12.0165 15.9206 14.2478 14.4385 15.9313L14.2502 16.1387L10.3148 20.3278C9.81549 20.8591 9.14513 21.1685 8.43956 21.1932C7.73399 21.218 7.04596 20.9563 6.51485 20.4611L6.38129 20.3278L2.44495 16.1377C0.879477 14.4709 0 12.2103 0 9.85311C0 7.49592 0.879477 5.23528 2.44495 3.5685C4.01043 1.90172 6.13368 0.965332 8.3476 0.965332C10.5615 0.965332 12.6848 1.90172 14.2502 3.5685ZM8.3476 6.89053C7.98219 6.89053 7.62037 6.96716 7.28277 7.11605C6.94518 7.26493 6.63844 7.48315 6.38006 7.75825C6.12168 8.03335 5.91672 8.35994 5.77689 8.71938C5.63705 9.07882 5.56508 9.46406 5.56508 9.85311C5.56508 10.2422 5.63705 10.6274 5.77689 10.9868C5.91672 11.3463 6.12168 11.6729 6.38006 11.948C6.63844 12.2231 6.94518 12.4413 7.28277 12.5902C7.62037 12.7391 7.98219 12.8157 8.3476 12.8157C9.08557 12.8157 9.79331 12.5036 10.3151 11.948C10.837 11.3924 11.1301 10.6388 11.1301 9.85311C11.1301 9.06738 10.837 8.31384 10.3151 7.75825C9.79331 7.20266 9.08557 6.89053 8.3476 6.89053Z" fill="#401C1C"/>
</svg>
