<svg width="251" height="239" viewBox="0 0 251 239" fill="none" xmlns="http://www.w3.org/2000/svg">
<circle cx="129.375" cy="119.366" r="111.896" fill="#EEEEEE"/>
<mask id="mask0_59_312" style="mask-type:alpha" maskUnits="userSpaceOnUse" x="-1" y="-1" width="252" height="240">
<path d="M37.1992 68.2732V186.668L109.73 186.071L115.556 197.126L126.537 171.803L135.127 196.678L145.062 179.871L148.946 186.071H223.27L244.334 185.772L243.513 238.657H0L34.286 189.357V66.107H107.414C127.493 70.529 131.417 86.2254 130.869 93.5208C129.794 111.866 115.681 118.744 108.759 119.889H60.6541L53.9313 134.53H108.759C139.953 128.434 146.257 104.003 145.51 92.5497C143.478 62.8502 120.86 52.4872 109.805 51.0181H34.286L33.3149 0H250.235V153.951H238.956H191.822V50.57H177.406V168.965H233.503L232.383 171.131H174.791V51.0181H160.001V179.572H152.083L144.539 167.919L136.472 183.381L126.537 156.042L115.183 183.381L113.39 179.572H51.6157V83.5861H107.414C118.29 91.0558 111.946 99.4468 107.414 102.709H67.5262L61.6998 117.2H108.759C124.655 113.256 128.13 99.7705 127.881 93.5208C127.881 76.1911 114.237 69.4683 107.414 68.2732H37.1992Z" fill="#FF0000" stroke="black" stroke-width="0.167324"/>
</mask>
<g mask="url(#mask0_59_312)">
<circle cx="129.226" cy="119.366" r="111.896" fill="#DB0B12"/>
</g>
</svg>
